<svg version="1.1" id="Layer_1" xmlns="http://www.w3.org/2000/svg" xmlns:xlink="http://www.w3.org/1999/xlink" x="0px" y="0px"
	 width="100%" viewBox="0 0 1024 1024" enable-background="new 0 0 1024 1024" xml:space="preserve">
<path fill="#000000" opacity="1.000000" stroke="none" 
	d="
M906.066284,714.390503 
	C886.327087,707.664551 876.247253,694.757690 876.769897,677.091614 
	C876.964172,670.524353 878.922363,664.313232 881.423889,658.292236 
	C884.810852,650.139893 888.422913,642.078979 891.686646,633.878601 
	C892.966736,630.662231 894.507263,629.913391 897.720032,631.314575 
	C918.481750,640.369568 939.293884,649.308777 960.102661,658.255554 
	C962.261414,659.183777 964.031677,659.950439 962.650757,662.959290 
	C957.650696,673.854431 953.611084,685.195679 947.879211,695.746582 
	C939.500671,711.169556 923.202026,718.426025 906.066284,714.390503 
M890.245605,664.801880 
	C888.101868,670.723328 887.357788,676.821472 888.673645,682.984802 
	C890.971680,693.748657 899.783508,701.355896 911.972290,703.428650 
	C922.411438,705.203918 932.601929,700.319763 938.587341,690.455627 
	C942.489929,684.023987 944.826782,676.839294 948.007996,670.058472 
	C949.265259,667.378418 948.115540,666.071228 945.757019,665.067810 
	C931.195435,658.873047 916.631958,652.681763 902.114197,646.385254 
	C899.190063,645.117004 897.922241,646.214050 896.883667,648.844421 
	C894.865417,653.955994 892.635925,658.984070 890.245605,664.801880 
z"/>
<path fill="#000000" opacity="1.000000" stroke="none" 
	d="
M92.814880,666.959961 
	C85.573921,669.140198 78.711670,671.187988 71.857582,673.262634 
	C69.819679,673.879456 67.738808,674.377258 66.991570,671.632385 
	C63.413937,658.490540 57.767200,645.861633 56.615612,632.119080 
	C54.996048,612.791870 65.298698,598.177185 84.021614,592.753540 
	C101.645226,587.648438 118.698128,594.898071 127.356941,611.626526 
	C133.443710,623.385986 135.869385,636.466797 139.902634,648.966003 
	C140.976624,652.294312 138.417831,652.847290 136.135590,653.552490 
	C121.820953,657.975525 107.509331,662.408264 92.814880,666.959961 
M121.771744,625.674194 
	C120.859512,623.356018 120.101944,620.962036 119.009239,618.732300 
	C113.121849,606.718872 101.182014,600.789124 88.945267,603.704407 
	C74.757652,607.084534 66.919128,617.005005 67.135963,631.253235 
	C67.275566,640.426819 71.336159,648.634888 73.519585,657.304016 
	C74.105629,659.630859 75.759880,659.663025 77.851112,659.013855 
	C93.090683,654.282959 108.347214,649.605164 123.631653,645.021484 
	C126.663521,644.112244 127.047203,642.446777 126.145905,639.754028 
	C124.669548,635.343079 123.371880,630.872375 121.771744,625.674194 
z"/>
<path fill="#000000" opacity="1.000000" stroke="none" 
	d="
M324.811798,117.071388 
	C319.496765,103.558121 314.306152,90.408295 309.137451,77.249840 
	C308.357117,75.263321 307.119324,73.123405 310.261230,71.931038 
	C322.680542,67.217819 334.584381,61.030033 347.739655,58.413380 
	C365.651520,54.850620 382.159760,63.590134 389.250549,80.187134 
	C396.647034,97.499527 392.018188,114.997620 377.089630,125.833458 
	C367.509155,132.787430 356.100555,135.775864 345.340485,140.128067 
	C335.611664,144.063110 335.536346,143.858078 331.639984,134.095718 
	C329.420929,128.535889 327.176392,122.986244 324.811798,117.071388 
M342.142395,70.589859 
	C336.730408,72.744591 331.364075,75.025909 325.886932,76.999825 
	C323.209290,77.964821 322.632294,79.281952 323.663208,81.863228 
	C329.650909,96.856033 335.571930,111.875603 341.468384,126.904610 
	C342.295441,129.012726 343.440979,129.773163 345.657318,128.820435 
	C352.380890,125.930229 359.326508,123.490799 365.838928,120.191376 
	C374.539124,115.783539 380.150635,108.694069 380.656708,98.619286 
	C381.740845,77.035690 364.219116,64.008209 342.142395,70.589859 
z"/>
<path fill="#000000" opacity="1.000000" stroke="none" 
	d="
M752.801270,798.593872 
	C755.723938,797.734436 758.245361,796.834412 760.842896,796.316345 
	C767.014099,795.085632 768.368347,796.245178 768.330933,802.437195 
	C768.324097,803.567688 768.145386,804.697083 768.025208,806.063293 
	C758.205444,807.113525 749.350525,810.079712 742.479126,817.345642 
	C736.108582,824.082153 736.495056,833.261963 743.889038,840.381531 
	C748.156006,828.972656 755.883118,821.296875 767.643433,818.316711 
	C773.260071,816.893311 778.886292,817.376343 784.265015,819.639893 
	C795.943298,824.554626 802.965637,837.096130 801.343079,850.032288 
	C799.660156,863.449951 788.370667,872.570251 769.357300,875.785950 
	C769.261963,878.188110 773.360107,880.183228 769.676453,883.107727 
	C764.057739,887.568420 763.663818,887.662415 759.382629,881.821899 
	C751.117920,870.546692 742.703918,859.380920 734.459656,848.091064 
	C732.408752,845.282532 730.486206,842.308533 728.993530,839.177551 
	C724.344666,829.426392 725.841553,820.443665 732.976074,812.384583 
	C738.372925,806.288635 745.016113,801.951172 752.801270,798.593872 
M781.149353,831.152100 
	C780.249207,830.723267 779.385864,830.174866 778.443115,829.884399 
	C770.900146,827.560791 764.178894,829.387817 758.632019,834.686157 
	C754.143188,838.973816 751.455444,844.394104 752.825134,850.835266 
	C754.674866,859.533386 761.366028,865.460999 769.242249,865.857300 
	C777.740723,866.284912 786.693726,860.092651 789.648193,851.743835 
	C792.241211,844.416321 789.427368,837.146912 781.149353,831.152100 
z"/>
<path fill="#000000" opacity="1.000000" stroke="none" 
	d="
M595.321106,100.170448 
	C594.930847,102.736267 594.650513,104.883476 594.190979,106.991623 
	C591.077759,121.272148 583.728577,128.145615 569.077637,128.780823 
	C558.270569,129.249374 547.947998,126.438698 538.944031,120.014275 
	C537.399048,118.911880 535.079346,117.776138 535.684509,115.447433 
	C536.358337,112.854652 538.278809,110.769035 540.508423,109.290764 
	C542.140503,108.208649 543.220398,109.940216 544.323914,110.827858 
	C550.385742,115.703667 557.466309,117.953377 565.056335,118.608643 
	C576.014526,119.554688 582.986389,112.547012 583.246521,100.610062 
	C565.990784,107.963387 550.334717,104.791222 541.879944,92.228531 
	C534.479492,81.232437 535.858521,66.270775 545.142517,56.831810 
	C556.143250,45.647499 571.106323,45.953705 589.210205,57.916439 
	C590.516296,55.796463 590.254639,52.337948 594.417664,52.598213 
	C600.183960,52.958710 601.231384,53.818512 600.479614,59.644650 
	C598.755554,73.005928 597.057007,86.370522 595.321106,100.170448 
M574.169006,60.097504 
	C571.125793,58.928505 567.942993,59.045788 564.791992,59.226746 
	C554.750183,59.803429 547.369324,68.989632 548.896362,78.906021 
	C550.302185,88.036095 557.374023,94.347336 566.665283,94.764023 
	C576.627625,95.210808 584.240845,90.074722 586.423035,81.434959 
	C588.760315,72.180687 584.673828,64.674316 574.169006,60.097504 
z"/>
<path fill="#000000" opacity="1.000000" stroke="none" 
	d="
M243.057144,834.025940 
	C249.496918,829.525940 255.697968,825.306824 261.767334,820.906128 
	C264.313507,819.059937 266.523102,818.163818 269.337708,820.469482 
	C272.023132,822.669373 274.823792,824.014465 273.538544,828.766113 
	C270.165741,841.235901 267.517365,853.901550 264.291046,867.728943 
	C276.047302,859.687744 286.802704,852.458557 297.395477,844.998352 
	C300.139069,843.066101 302.245148,842.852722 304.951691,844.928040 
	C307.541565,846.914062 310.035706,848.423340 308.994507,852.504517 
	C304.634003,869.596130 300.486694,886.742188 296.247803,903.864929 
	C295.932617,905.137939 295.663208,906.471130 294.392853,907.214722 
	C286.404022,904.239075 285.737885,903.094543 287.742096,895.251587 
	C290.500793,884.456238 293.324249,873.677368 296.112488,862.889526 
	C296.521088,861.308533 297.168915,859.750671 296.647766,857.480164 
	C286.722839,864.335938 277.027863,871.029968 267.337463,877.730713 
	C266.104401,878.583313 264.849121,879.413452 263.684631,880.353699 
	C260.922394,882.583984 258.478394,883.802979 254.858490,881.229187 
	C251.374710,878.752258 251.383560,876.252991 252.337143,872.672974 
	C255.461609,860.942688 258.321686,849.141907 261.264160,837.363403 
	C261.538055,836.267090 261.675873,835.136719 262.127777,832.630493 
	C254.272598,838.188965 247.405014,843.062134 240.522232,847.913757 
	C236.709671,850.601135 232.846573,853.217285 229.051132,855.928406 
	C223.168671,860.130249 221.571167,859.875061 216.012222,853.211426 
	C224.953232,846.868896 233.859222,840.551147 243.057144,834.025940 
z"/>
<path fill="#000000" opacity="1.000000" stroke="none" 
	d="
M687.173706,82.257065 
	C690.288757,75.958847 693.456360,70.088959 696.099854,63.991833 
	C697.893555,59.854725 700.096191,60.158772 703.479126,61.875626 
	C706.691162,63.505772 708.785278,64.778244 706.556763,68.932648 
	C702.795776,75.943901 699.534302,83.223152 695.644165,91.253937 
	C704.964111,88.488113 712.923401,90.425949 720.247131,95.148956 
	C727.853821,100.054413 731.786682,107.269295 733.066284,116.151741 
	C734.830872,128.400314 724.716064,144.041733 712.250671,148.081299 
	C698.284546,152.607178 684.348328,145.876968 676.304749,130.675644 
	C674.022400,132.271500 674.617859,137.835861 669.307678,135.333954 
	C663.359741,132.531494 662.983704,132.107361 665.875549,126.140762 
	C672.912842,111.620842 679.959900,97.105682 687.173706,82.257065 
M690.238464,104.726234 
	C687.787964,107.513786 685.945068,110.645897 684.854370,114.206299 
	C682.536377,121.772781 684.717590,129.864731 690.239197,134.174026 
	C696.774292,139.274277 704.717163,139.851196 711.709900,135.733475 
	C718.281433,131.863785 722.489746,122.554840 721.429871,115.192039 
	C719.574280,102.300407 702.095154,94.117249 690.238464,104.726234 
z"/>
<path fill="#000000" opacity="1.000000" stroke="none" 
	d="
M170.636719,325.442841 
	C151.575134,313.750092 132.823029,302.258057 114.105774,290.709503 
	C111.865990,289.327545 108.355339,288.415894 110.883247,284.447266 
	C112.867218,281.332611 114.139984,276.773407 119.266853,280.701660 
	C119.453499,280.844666 119.887390,280.664978 120.205544,280.630066 
	C120.794815,261.893158 130.345245,248.754379 144.736847,246.875351 
	C159.106949,244.999115 174.338394,254.419632 178.571945,267.802063 
	C183.193710,282.411591 176.140915,296.130219 159.120956,304.740906 
	C165.268036,308.569214 170.988205,312.456421 177.020279,315.777069 
	C181.219696,318.088867 181.620895,320.215637 179.242004,324.394012 
	C176.606827,329.022491 174.121597,327.984894 170.636719,325.442841 
M152.645782,258.639984 
	C151.492859,258.519012 150.341904,258.318542 149.186676,258.289764 
	C140.451218,258.072052 133.608826,263.034119 130.868362,271.533997 
	C128.352295,279.337891 131.576706,287.545105 139.164658,292.650787 
	C146.940109,297.882629 155.213699,297.797821 161.717865,292.249420 
	C167.158432,287.608368 169.870972,281.656799 168.544647,274.529419 
	C166.984390,266.144958 161.132904,261.527313 152.645782,258.639984 
z"/>
<path fill="#000000" opacity="1.000000" stroke="none" 
	d="
M525.960449,75.188171 
	C526.108093,82.997704 526.214294,90.328239 526.393250,97.657005 
	C526.467529,100.703087 526.429321,103.383224 522.165466,103.317627 
	C518.722717,103.264671 515.133789,103.869293 515.624207,98.556053 
	C515.662231,98.143677 515.315186,97.695747 515.137939,97.240929 
	C497.768524,107.502693 482.733612,106.930290 473.117828,95.711105 
	C463.541962,84.538506 463.085907,66.661835 472.105011,56.009083 
	C482.148102,44.146866 497.169128,42.515385 513.013428,51.834087 
	C514.079468,48.716442 513.535034,45.673298 513.370911,42.639332 
	C513.092224,37.486870 513.041199,32.319473 512.656616,27.176132 
	C512.310242,22.543272 515.278870,22.724552 518.447998,22.614056 
	C521.861328,22.495045 524.181519,22.928661 524.246338,27.277086 
	C524.422485,39.099445 524.908264,50.917614 525.317871,62.735832 
	C525.456299,66.729195 525.734192,70.717720 525.960449,75.188171 
M514.607117,73.833298 
	C514.456055,73.017899 514.345337,72.192596 514.147888,71.388588 
	C511.288361,59.742512 502.980377,54.144707 491.743073,56.280006 
	C481.952423,58.140408 475.818054,67.727211 477.422485,78.660156 
	C478.841888,88.332207 487.256744,95.159996 497.147949,94.665421 
	C507.249115,94.160347 514.217224,86.190208 514.607117,73.833298 
z"/>
<path fill="#000000" opacity="1.000000" stroke="none" 
	d="
M881.246765,219.224945 
	C892.522339,211.712860 889.689026,210.969223 897.295288,221.805984 
	C901.118408,227.253021 905.077698,232.626663 908.540771,238.298889 
	C913.381409,246.227249 916.986389,254.585922 914.317688,264.257172 
	C909.093506,283.189178 886.214661,289.769653 871.606812,276.626404 
	C865.315552,270.965820 861.029297,263.808289 856.481567,256.872009 
	C854.167542,253.342651 852.130676,253.019363 848.920288,255.515198 
	C845.642517,258.063446 841.981812,260.120117 838.711914,262.677338 
	C835.892212,264.882568 833.780396,265.104858 831.966858,261.637177 
	C830.420898,258.681061 826.501709,256.170441 831.745361,252.695297 
	C848.248169,241.758194 864.569214,230.546753 881.246765,219.224945 
M863.889954,249.042938 
	C867.495300,254.243057 870.950684,259.556152 874.755066,264.606354 
	C877.621704,268.411835 881.364624,271.228729 886.347534,271.712372 
	C897.964722,272.839935 906.596802,262.290070 903.054932,251.201263 
	C900.571106,243.425079 895.068115,237.424347 890.627991,230.805817 
	C889.196960,228.672699 887.569458,229.412521 885.919678,230.534073 
	C879.033081,235.215576 872.127869,239.869934 865.261902,244.581421 
	C863.935120,245.491898 862.205627,246.373779 863.889954,249.042938 
z"/>
<path fill="#000000" opacity="1.000000" stroke="none" 
	d="
M496.932587,914.042603 
	C490.586334,911.395203 484.317413,910.878052 477.942444,911.421753 
	C471.971008,911.931030 467.462769,915.584473 466.639557,920.354675 
	C465.890961,924.692566 468.621979,928.816406 474.504883,931.179993 
	C481.449097,933.969910 488.642181,936.141052 495.583069,938.938538 
	C505.817017,943.063232 509.884827,949.284851 509.309265,959.132629 
	C508.797302,967.891602 503.056793,974.696228 493.455048,977.504395 
	C481.081879,981.123108 469.483246,978.664307 458.253693,972.889954 
	C453.693542,970.544983 455.461395,967.919739 456.952850,964.746460 
	C458.662506,961.108826 460.672180,962.020813 463.294861,963.542542 
	C469.930176,967.392639 477.098480,969.237671 484.817963,968.666504 
	C488.385559,968.402527 491.712433,967.489929 494.438690,965.044800 
	C499.156006,960.813904 498.960754,954.742554 493.926178,950.880920 
	C490.287598,948.090088 485.922241,946.829407 481.636047,945.488464 
	C476.226990,943.796143 470.763947,942.199707 465.782776,939.473083 
	C458.932159,935.722961 454.275085,930.364929 454.707825,921.972412 
	C455.140900,913.573120 459.024536,907.053101 466.884491,904.035889 
	C482.927856,897.877441 498.105591,900.704590 511.768829,910.619202 
	C517.362854,914.678528 510.605560,917.406738 509.975372,921.396484 
	C505.242584,918.857605 501.737244,915.649597 496.932587,914.042603 
z"/>
<path fill="#000000" opacity="1.000000" stroke="none" 
	d="
M97.885513,460.285095 
	C83.900658,462.888153 70.314598,456.742767 64.392334,445.385284 
	C58.495689,434.076965 60.581902,419.446350 69.744583,410.811646 
	C77.152794,403.830353 86.110870,401.728699 96.101562,403.662170 
	C99.365982,404.293884 99.429031,406.307037 98.970360,408.855072 
	C96.852119,420.622528 94.764626,432.395538 92.663910,444.166138 
	C92.373940,445.790863 91.943237,447.420074 92.853630,448.974365 
	C107.611900,449.793579 114.421799,433.795929 107.144341,415.550201 
	C113.125511,409.268402 115.802429,409.749420 119.040756,417.517242 
	C124.790031,431.308075 118.549812,455.543579 97.885513,460.285095 
M85.743439,433.456329 
	C86.677292,428.397308 87.630234,423.341705 88.537773,418.277954 
	C89.073906,415.286621 87.974136,413.902222 84.755569,414.255219 
	C77.749779,415.023529 71.775787,421.924774 71.239601,430.045258 
	C70.645264,439.046509 74.938980,445.486664 82.977211,447.300842 
	C84.588387,443.136810 84.647209,438.616028 85.743439,433.456329 
z"/>
<path fill="#000000" opacity="1.000000" stroke="none" 
	d="
M141.307343,752.296997 
	C127.773003,749.817627 118.456039,740.785645 115.979866,728.163330 
	C113.792061,717.010986 119.007980,705.763794 129.244003,699.035828 
	C132.535614,696.872314 134.545731,696.826050 136.718491,700.687317 
	C142.352692,710.699951 148.410675,720.474365 154.317703,730.332947 
	C155.248947,731.887085 156.275116,733.384338 157.245270,734.889099 
	C163.203812,731.598694 165.580124,724.269287 163.142212,716.509705 
	C161.055801,709.868896 157.213943,704.390564 150.446121,701.996582 
	C145.362488,700.198364 147.207870,697.296326 148.318985,694.165039 
	C149.738968,690.163330 152.362076,691.711121 154.802368,692.718567 
	C168.135361,698.222900 176.929428,714.750977 174.356415,728.589722 
	C171.722626,742.755371 156.245392,753.907471 141.307343,752.296997 
M146.880402,734.549927 
	C141.853607,726.873718 137.959915,718.447693 132.266663,711.206665 
	C124.567345,716.380859 123.557396,726.274902 128.643890,733.693909 
	C133.844208,741.278931 142.328812,743.798889 149.424194,739.528442 
	C148.712891,738.087769 147.989319,736.622314 146.880402,734.549927 
z"/>
<path fill="#000000" opacity="1.000000" stroke="none" 
	d="
M936.623840,469.315308 
	C935.182495,463.618561 936.600159,457.914825 934.369385,452.811890 
	C927.205200,454.008240 922.223267,459.624146 921.401672,467.509155 
	C920.688232,474.356415 921.696533,480.947906 926.786316,486.044922 
	C930.311890,489.575470 927.168213,491.144897 925.304077,493.299591 
	C922.953796,496.016235 921.110840,494.823608 919.103149,492.781525 
	C909.008972,482.514557 907.882019,463.289429 916.730225,451.204956 
	C924.866821,440.092346 942.031799,436.576752 955.075134,443.351471 
	C966.311401,449.187592 972.088745,462.664215 969.168518,476.226501 
	C966.676636,487.799500 955.565735,496.736877 943.191589,497.493530 
	C939.698486,497.707184 938.303162,496.545837 938.120178,493.185120 
	C937.695190,485.378723 937.141357,477.579315 936.623840,469.315308 
M948.196350,485.376587 
	C957.692993,481.870331 961.892639,473.824432 959.360657,463.987427 
	C957.395447,456.352234 951.232788,451.422852 944.213318,452.306885 
	C943.731018,460.015076 945.051208,467.705109 945.729553,475.388672 
	C946.020447,478.683289 944.894226,482.385620 948.196350,485.376587 
z"/>
<path fill="#000000" opacity="1.000000" stroke="none" 
	d="
M871.601440,720.345947 
	C858.836548,720.871216 850.300537,729.749634 850.261047,742.418640 
	C850.250305,745.866333 849.827576,748.087402 845.642151,748.436035 
	C841.466919,748.783875 839.987366,747.163330 839.708740,743.238281 
	C838.599304,727.609619 852.541443,711.243103 868.824158,709.230408 
	C882.953369,707.483887 898.609558,720.208130 901.082642,735.447937 
	C902.720337,745.539673 896.211426,758.501099 886.607300,764.273560 
	C877.286316,769.875916 864.169250,769.140930 855.417297,762.780090 
	C852.587463,760.723328 853.140503,759.020264 854.781372,756.573975 
	C861.181824,747.031799 867.420715,737.381287 873.720947,727.771912 
	C874.809814,726.111206 876.040710,724.519592 876.354004,722.471436 
	C875.304993,720.812683 873.593140,720.705505 871.601440,720.345947 
M890.756531,739.526367 
	C890.717712,734.678467 889.106079,730.599121 884.833557,727.065918 
	C877.955139,736.432617 872.146545,745.933350 866.243713,755.414795 
	C877.102478,761.517273 889.453674,753.655273 890.756531,739.526367 
z"/>
<path fill="#000000" opacity="1.000000" stroke="none" 
	d="
M167.387604,244.609070 
	C148.086334,224.260284 163.326309,199.850067 180.521408,195.519028 
	C190.785416,192.933777 199.489304,196.277725 207.301605,202.849640 
	C210.262726,205.340622 208.276001,207.158829 206.625504,209.075577 
	C198.808334,218.153763 190.976028,227.219040 183.190430,236.324219 
	C182.255280,237.417847 180.892242,238.310699 180.865204,240.301056 
	C184.967453,243.614075 189.757675,243.602829 194.386398,241.971375 
	C203.294189,238.831787 208.922745,232.481232 209.697754,222.926407 
	C210.089996,218.090576 212.460632,217.591721 216.238098,217.903809 
	C220.452042,218.251938 220.399704,221.267715 219.965469,224.102310 
	C217.942413,237.308105 210.946899,247.096405 198.419556,251.834488 
	C186.982407,256.160217 176.494370,253.411194 167.387604,244.609070 
M169.736313,217.623093 
	C168.537430,223.435104 168.225723,229.030441 173.715576,234.043625 
	C181.238205,225.280060 188.436752,216.894012 195.665283,208.473053 
	C186.568787,201.683502 175.686493,205.515060 169.736313,217.623093 
z"/>
<path fill="#000000" opacity="1.000000" stroke="none" 
	d="
M657.686768,885.072510 
	C671.830322,892.940247 677.744690,910.869446 671.122437,924.938843 
	C665.012756,937.919250 647.647156,944.717285 634.089233,939.278809 
	C625.267029,935.739929 620.207886,928.767151 617.192749,920.024719 
	C615.938293,916.387207 618.489136,915.751282 620.911438,914.954041 
	C632.139771,911.258545 643.376831,907.589600 654.601318,903.882385 
	C656.144592,903.372681 657.880432,903.236511 659.054810,901.908142 
	C653.863037,888.291504 637.123718,889.496582 622.445679,904.495605 
	C622.118408,904.479248 621.752869,904.549316 621.469788,904.427673 
	C613.816589,901.137939 613.425293,899.395264 618.905151,893.107178 
	C627.900635,882.784912 644.287659,879.287964 657.686768,885.072510 
M632.271606,920.303711 
	C629.415588,921.001953 630.033997,922.465820 631.262268,924.296143 
	C634.865723,929.665771 642.319153,932.252563 649.492249,930.512451 
	C656.364319,928.845398 662.127014,922.745789 662.739868,916.490417 
	C663.218018,911.609680 662.227051,910.649902 657.597473,912.091614 
	C649.342834,914.662354 641.149536,917.430176 632.271606,920.303711 
z"/>
<path fill="#000000" opacity="1.000000" stroke="none" 
	d="
M654.657471,117.445511 
	C655.390808,120.016998 653.724060,120.696396 652.260986,121.490959 
	C640.611023,127.817604 620.041687,121.518570 612.439026,109.302094 
	C604.463928,96.487129 608.078918,78.057266 620.346680,68.987465 
	C632.209473,60.217064 649.983459,62.416790 659.652344,73.904579 
	C666.168335,81.646378 667.591003,90.470955 665.257324,100.167747 
	C664.322571,104.051933 662.649719,105.380463 658.550232,104.048393 
	C647.787354,100.551102 636.914917,97.390053 626.080505,94.113800 
	C624.200623,93.545334 622.293030,93.068672 620.214905,92.499390 
	C618.526917,95.947769 619.217651,98.900314 620.606384,101.794495 
	C624.883240,110.707947 636.549438,116.254189 645.926392,112.860245 
	C651.160339,110.965851 653.279053,112.373932 654.657471,117.445511 
M650.542236,78.972885 
	C639.918945,70.224594 626.903320,72.240433 622.628601,83.952698 
	C633.335083,87.268913 644.005310,90.573914 655.159302,94.028740 
	C656.289124,87.816208 654.356689,83.458107 650.542236,78.972885 
z"/>
<path fill="#000000" opacity="1.000000" stroke="none" 
	d="
M90.483795,545.611084 
	C91.462578,552.968872 92.403603,559.878845 93.305046,566.793945 
	C93.845169,570.937256 95.148018,571.529297 98.772202,569.208191 
	C108.494308,562.981689 109.824371,547.410400 101.216110,537.397522 
	C98.897224,534.700256 98.700226,533.021729 101.109612,530.281860 
	C104.014801,526.978149 106.102211,527.498108 108.844078,530.320801 
	C117.907150,539.650818 120.137337,557.461365 113.529045,569.004211 
	C106.883865,580.611511 92.663849,586.103821 78.880287,582.386841 
	C64.772484,578.582458 57.088940,565.992859 58.699921,549.321106 
	C59.821987,537.708984 71.368805,526.935242 83.825912,525.806213 
	C86.550270,525.559326 88.298035,526.167664 88.588577,529.326843 
	C89.075195,534.618103 89.803040,539.887085 90.483795,545.611084 
M82.525009,548.891052 
	C82.221642,546.251404 81.878540,543.615479 81.627426,540.970886 
	C81.424538,538.834229 80.467896,538.057739 78.304291,538.634766 
	C71.621201,540.416992 66.965797,549.361023 68.381081,557.832092 
	C69.833717,566.526672 76.518303,572.244568 84.904503,571.420410 
	C84.147751,564.212769 83.390228,556.997864 82.525009,548.891052 
z"/>
<path fill="#000000" opacity="1.000000" stroke="none" 
	d="
M931.742920,346.136536 
	C930.802124,336.971527 925.515381,330.912811 919.230408,325.763336 
	C919.115967,323.557281 920.723511,322.610687 921.565063,321.232239 
	C923.619019,317.867798 925.847107,318.336212 928.468628,320.627594 
	C937.037720,328.117706 942.003662,337.608673 942.862976,348.811554 
	C943.416809,356.031403 940.242310,362.336945 933.739563,366.017273 
	C922.243408,372.523621 909.516785,376.143494 897.247192,380.826660 
	C894.519592,381.867737 893.718079,379.840607 892.986267,377.935486 
	C891.818909,374.896393 889.478027,371.576965 895.455139,369.738037 
	C887.669189,364.674469 883.662292,357.832520 882.011414,349.559052 
	C879.494568,336.946381 887.187073,327.093170 899.053040,327.691101 
	C904.467651,327.963989 908.374634,330.815491 911.499207,335.029022 
	C915.133606,339.929901 916.771790,345.756287 919.118652,351.253387 
	C920.089050,353.526550 920.950134,355.846405 921.822571,358.048157 
	C928.568359,357.284149 931.440369,353.843567 931.742920,346.136536 
M907.388855,345.172913 
	C903.768555,339.316101 900.164673,337.647461 895.717346,339.768860 
	C891.469299,341.795197 890.295898,346.303284 892.338379,352.405640 
	C893.703064,356.483002 895.935181,359.916321 899.539429,362.321808 
	C904.666138,365.743378 908.707397,365.402618 913.491882,361.197876 
	C913.330566,360.606659 913.211426,359.949127 912.974487,359.337189 
	C911.232300,354.837219 909.466492,350.346375 907.388855,345.172913 
z"/>
<path fill="#000000" opacity="1.000000" stroke="none" 
	d="
M777.451233,165.403259 
	C773.029785,171.689011 768.930054,177.765579 764.574646,183.652985 
	C763.198853,185.512619 762.624573,189.743362 759.035950,187.706039 
	C755.969421,185.965118 750.804016,184.647491 754.169922,178.565826 
	C744.105469,178.468094 736.310974,174.434494 730.364014,167.149460 
	C726.151062,161.988510 724.073303,156.092453 727.206726,149.524780 
	C729.966187,143.741165 734.343018,139.850540 740.969727,139.368225 
	C746.757507,138.946976 751.614380,141.721573 756.252563,144.709732 
	C760.990173,147.761978 765.563965,151.068588 770.137695,154.214462 
	C775.715271,149.071030 776.076233,143.184921 771.080627,137.905960 
	C766.345215,132.901886 760.417480,129.938126 753.521240,129.379501 
	C750.399963,129.126663 748.277283,128.580292 748.916321,124.764503 
	C749.501465,121.271004 750.059509,118.255882 754.978638,119.110497 
	C764.300598,120.730034 772.418762,124.585426 779.123108,131.240189 
	C786.903198,138.962830 788.084900,148.040939 782.613342,157.615601 
	C781.130371,160.210770 779.329163,162.624115 777.451233,165.403259 
M753.361145,153.123474 
	C751.455322,152.126495 749.573120,151.080719 747.638062,150.144104 
	C744.792664,148.766830 742.128357,149.204956 739.779541,151.262939 
	C737.251831,153.477676 736.761230,156.385193 737.530579,159.462143 
	C738.748108,164.331665 746.065063,169.513641 752.119873,169.980743 
	C759.064758,170.516479 762.176880,168.560898 765.219482,161.503082 
	C761.514832,158.871399 757.744019,156.192749 753.361145,153.123474 
z"/>
<path fill="#000000" opacity="1.000000" stroke="none" 
	d="
M194.959320,807.374329 
	C192.653168,813.864807 194.733200,818.851135 199.197769,823.041870 
	C202.633636,826.267090 206.520508,828.998047 211.183380,829.975464 
	C215.237274,830.825317 216.297745,832.608032 215.082047,836.579041 
	C213.854874,840.587585 211.540619,840.752136 208.205353,839.659485 
	C198.467392,836.469238 190.804459,830.629883 185.512909,821.858826 
	C180.687164,813.859863 180.991318,805.851196 186.912292,798.629578 
	C194.631882,789.214294 203.726364,781.069153 212.226578,772.374634 
	C214.320999,770.232300 216.006683,771.040161 217.685425,772.896057 
	C219.907974,775.353210 223.988556,777.371521 218.761093,781.531616 
	C228.571884,783.023132 235.325333,788.077026 240.283188,795.630493 
	C243.902283,801.144348 244.872299,807.160095 241.976257,813.187866 
	C238.001175,821.461487 228.990875,824.424011 220.324890,820.737854 
	C215.595688,818.726257 212.021881,815.218994 208.586914,811.577454 
	C205.632538,808.445496 202.844147,805.157043 200.457611,802.472412 
	C196.800613,803.351013 196.145874,805.360413 194.959320,807.374329 
M206.447357,794.535034 
	C206.263138,795.148071 205.723282,796.073364 205.947052,796.328186 
	C210.862167,801.926331 215.322937,808.200317 222.350998,811.291321 
	C227.911316,813.736877 233.633545,809.075012 232.560120,803.192993 
	C231.368515,796.663452 226.729965,792.875793 220.843277,790.689148 
	C215.586685,788.736511 210.690979,789.402832 206.447357,794.535034 
z"/>
<path fill="#000000" opacity="1.000000" stroke="none" 
	d="
M390.503357,933.182495 
	C384.454102,914.817444 392.180847,897.672974 409.179840,892.691956 
	C421.510193,889.079041 432.704773,892.377136 441.411896,901.872925 
	C449.775787,910.994446 450.690186,921.754089 446.198181,933.020874 
	C441.470276,944.879395 432.079895,950.822998 419.818329,950.839783 
	C407.122742,950.857178 396.510345,945.817444 390.503357,933.182495 
M434.114258,931.467529 
	C434.743530,929.937378 435.490204,928.443909 435.982300,926.870789 
	C438.496918,918.832153 436.355743,910.811401 430.494415,906.040283 
	C425.040771,901.601013 415.848175,900.638916 409.831848,903.877747 
	C403.330292,907.377930 398.555176,916.692749 399.473999,924.083008 
	C400.422089,931.708679 405.527496,937.633484 412.935089,939.704407 
	C421.480988,942.093689 427.887299,939.757996 434.114258,931.467529 
z"/>
<path fill="#000000" opacity="1.000000" stroke="none" 
	d="
M96.544846,363.507202 
	C86.770981,353.679382 84.208748,341.920990 89.128143,330.431976 
	C94.768562,317.259094 104.704315,310.326233 117.418312,310.692078 
	C135.433411,311.210388 147.323257,324.724487 146.328110,343.551056 
	C145.487839,359.447662 130.638809,372.473877 114.441452,371.228821 
	C107.833427,370.720886 101.953926,367.977600 96.544846,363.507202 
M111.868683,358.788147 
	C120.526955,360.977539 128.053787,358.778412 132.381012,352.552277 
	C136.837692,346.139862 137.702728,339.071228 133.812485,332.319916 
	C129.426926,324.708984 122.025291,321.684052 113.456146,322.349915 
	C105.629402,322.958069 100.865868,327.836945 98.440689,335.077606 
	C95.027222,345.268860 99.656151,353.803619 111.868683,358.788147 
z"/>
<path fill="#000000" opacity="1.000000" stroke="none" 
	d="
M405.764465,102.143311 
	C397.717743,89.943535 397.184875,77.012177 404.101654,66.716904 
	C410.374664,57.379864 424.619049,51.692341 435.824829,54.050453 
	C450.338470,57.104660 459.302673,68.238174 459.385803,83.313034 
	C459.466400,97.937729 450.582947,108.975197 436.100372,112.179169 
	C424.168884,114.818764 414.087585,111.659676 405.764465,102.143311 
M421.390900,65.652260 
	C412.851196,70.426750 409.747192,77.043343 411.408844,86.930374 
	C412.928650,95.973419 420.002594,102.405579 428.761688,102.708923 
	C437.700684,103.018494 445.946747,97.428871 447.434723,89.277016 
	C450.552643,72.195343 438.898468,59.938503 421.390900,65.652260 
z"/>
<path fill="#000000" opacity="1.000000" stroke="none" 
	d="
M924.122192,392.104126 
	C932.949951,385.528717 941.487732,379.162415 950.045471,372.822937 
	C950.417480,372.547302 950.972107,372.518097 951.422852,372.379913 
	C955.949219,378.784668 955.455017,382.508942 949.570496,386.846161 
	C940.461365,393.560150 931.343140,400.261902 922.271118,407.025726 
	C920.725403,408.178131 918.950989,409.174530 917.943665,411.291138 
	C922.048462,413.582092 926.631104,413.576508 930.927002,414.470734 
	C940.357361,416.433807 949.868958,418.004517 959.341492,419.767120 
	C964.045471,420.642456 965.467651,423.431152 964.945435,430.582001 
	C964.140930,431.433655 963.101501,431.284851 962.147400,431.094879 
	C939.339172,426.553345 916.485352,422.222076 893.752075,417.330597 
	C881.199158,414.629608 874.673950,403.035278 877.840698,390.685944 
	C878.661438,387.485382 880.093323,385.594177 883.814758,386.875854 
	C886.749390,387.886627 889.504089,388.306488 887.882141,392.878296 
	C886.242981,397.498688 887.007996,402.200073 891.433167,405.375854 
	C896.172180,408.776947 901.906799,408.642212 906.625671,405.154510 
	C912.380981,400.900848 918.100708,396.599091 924.122192,392.104126 
z"/>
<path fill="#000000" opacity="1.000000" stroke="none" 
	d="
M719.144409,900.167175 
	C725.545715,893.935730 725.708008,887.013672 722.242798,879.775513 
	C718.507751,871.973633 714.615295,864.238159 710.499268,856.631836 
	C708.747864,853.395386 709.046265,851.521118 712.524170,850.075378 
	C715.687073,848.760559 718.445251,846.297363 720.949524,851.419922 
	C728.037170,865.917847 735.406555,880.282349 742.921448,894.564514 
	C745.199585,898.894104 742.593750,899.954895 739.652893,901.630310 
	C736.669067,903.330261 734.451050,903.778687 733.084106,899.921631 
	C732.881592,899.350220 732.415405,898.872131 731.792480,897.928711 
	C727.882751,906.848572 721.526123,912.576538 712.636536,915.276062 
	C701.772583,918.575195 692.158569,915.126953 686.535583,905.238037 
	C681.031494,895.558167 676.311340,885.435303 671.099243,875.585144 
	C669.160828,871.921753 671.557800,870.896545 674.094849,869.743713 
	C676.683289,868.567566 679.275513,866.027039 681.455444,870.474243 
	C685.409912,878.541321 689.417542,886.588135 693.645691,894.513977 
	C700.003235,906.431458 707.634705,908.140564 719.144409,900.167175 
z"/>
<path fill="#000000" opacity="1.000000" stroke="none" 
	d="
M862.219910,798.963867 
	C857.427368,806.638489 851.385132,812.441650 843.652893,816.453796 
	C841.049316,817.804810 838.808960,818.126038 837.873047,814.620300 
	C837.163025,811.960327 833.958313,809.068176 839.169312,807.026855 
	C845.229553,804.652710 849.734497,800.134827 853.028748,794.553223 
	C854.869141,791.434937 856.093872,787.931213 853.053894,784.903076 
	C849.830811,781.692688 846.479126,783.593506 843.576416,785.634033 
	C839.223877,788.693604 835.189697,792.208252 830.818604,795.238647 
	C823.296204,800.453735 817.232178,800.626099 811.533569,796.132202 
	C805.661011,791.501343 803.965820,784.327698 807.334961,776.251831 
	C811.984741,765.106201 820.271606,757.521301 831.277344,752.717102 
	C834.665771,751.238037 836.208008,752.641235 837.170715,755.694458 
	C838.021973,758.394287 839.518311,760.981079 835.315125,762.527344 
	C828.065796,765.194214 822.334717,769.932617 818.267639,776.524109 
	C816.252441,779.790222 814.867493,783.407654 818.390503,786.470703 
	C821.609497,789.269348 824.667114,787.242981 827.396240,785.212463 
	C830.599365,782.829285 833.641113,780.230591 836.809937,777.799744 
	C846.159180,770.627869 852.932129,769.960938 859.859009,775.468811 
	C866.270325,780.566956 867.161133,788.701538 862.219910,798.963867 
z"/>
<path fill="#000000" opacity="1.000000" stroke="none" 
	d="
M337.273743,950.969910 
	C335.672882,949.988770 334.351105,949.262329 333.167755,948.355286 
	C330.615814,946.399353 330.076202,944.309143 332.510895,941.675049 
	C334.593536,939.421875 335.962036,937.693359 339.299011,940.543823 
	C346.585510,946.768127 352.840973,943.913696 355.148224,933.495361 
	C352.187164,931.079041 348.342865,930.478333 344.819733,929.224609 
	C341.648773,928.096375 340.139648,926.730896 341.591431,922.994934 
	C342.898071,919.632568 344.441437,918.515564 347.895630,919.949768 
	C351.234070,921.335999 354.732452,922.337097 358.730988,923.702026 
	C362.145752,914.450256 365.433929,905.610962 368.667511,896.751831 
	C370.322174,892.218384 372.103577,887.712646 373.410980,883.076843 
	C374.501831,879.208923 376.246674,878.476013 379.922424,880.025574 
	C383.380920,881.483398 386.246368,882.149597 384.253693,887.257263 
	C379.599426,899.187012 375.664581,911.395447 371.219818,923.410156 
	C370.015594,926.665283 370.598083,928.518311 373.936340,929.361023 
	C377.624084,930.292175 378.552002,932.173889 377.184845,935.918091 
	C375.816589,939.665222 373.793060,939.868164 370.686188,938.485046 
	C368.149689,937.355835 366.315552,937.270386 364.872314,940.603882 
	C359.138947,953.846191 351.045258,956.842712 337.273743,950.969910 
z"/>
<path fill="#000000" opacity="1.000000" stroke="none" 
	d="
M55.141613,520.535278 
	C54.182682,513.048584 58.050453,509.980011 64.304604,507.821198 
	C74.526405,504.292786 84.478127,499.980560 94.534622,495.975983 
	C96.026871,495.381714 97.469009,494.661621 99.416306,493.781982 
	C94.857887,490.399780 90.114319,488.798889 85.680939,486.649353 
	C78.339073,483.089569 70.902153,479.725800 63.504791,476.280487 
	C55.881725,472.730103 55.619595,472.184326 57.244816,463.141846 
	C59.200123,462.153137 60.787018,463.485199 62.342049,464.201538 
	C78.073547,471.448608 93.709740,478.905426 109.504890,486.009430 
	C113.432167,487.775726 114.319344,490.290100 114.231674,494.212280 
	C114.145218,498.080200 112.778427,500.168182 109.085220,501.635284 
	C92.837997,508.089447 76.723297,514.876526 60.514713,521.429626 
	C58.845432,522.104492 56.617146,524.446777 55.141613,520.535278 
z"/>
<path fill="#000000" opacity="1.000000" stroke="none" 
	d="
M335.518799,882.391724 
	C338.227264,874.056458 336.019501,870.156555 327.827728,869.219604 
	C324.187500,868.803345 323.552887,867.110718 323.601044,863.982422 
	C323.651184,860.727112 325.073639,859.724426 328.174408,859.621521 
	C342.937866,859.131897 352.251740,872.041260 346.551849,885.536133 
	C343.252411,893.347839 339.485748,900.961853 335.950531,908.674561 
	C335.199615,910.312866 334.035248,911.814209 334.107300,913.746033 
	C334.791962,915.095398 336.158783,915.435608 337.349518,915.914551 
	C340.550171,917.201843 342.228668,918.673706 340.421600,922.634277 
	C338.612366,926.599731 336.309692,926.468506 333.366669,924.650574 
	C328.931519,921.910828 327.935028,925.327759 326.652496,928.234741 
	C325.234314,931.449280 324.065643,934.308716 319.431824,931.880554 
	C313.966980,929.016846 313.706116,929.004944 316.326477,923.322205 
	C317.080261,921.687500 317.750519,920.014282 318.633026,917.952271 
	C314.966919,916.129822 311.640961,914.311218 308.179291,912.804382 
	C305.032684,911.434692 304.382812,909.664124 306.017853,906.583740 
	C307.437134,903.909912 308.590698,902.386169 312.095886,903.880859 
	C323.118378,908.581177 323.205933,908.453796 328.413574,897.683472 
	C330.803192,892.741272 333.060455,887.734985 335.518799,882.391724 
z"/>
<path fill="#000000" opacity="1.000000" stroke="none" 
	d="
M814.109009,194.109070 
	C824.590881,183.628189 834.908447,173.480743 844.999451,163.112823 
	C847.746948,160.289886 849.621216,160.106827 852.248352,163.116837 
	C854.599243,165.810394 857.339966,167.513000 853.284119,171.468414 
	C836.259094,188.071777 819.509766,204.959930 802.796692,221.879242 
	C799.923035,224.788391 798.057861,223.864380 795.901917,221.363953 
	C793.941284,219.090118 790.604370,217.380203 794.429504,213.736618 
	C801.050842,207.429459 807.397522,200.834000 814.109009,194.109070 
z"/>
<path fill="#000000" opacity="1.000000" stroke="none" 
	d="
M916.171753,290.108276 
	C922.259888,286.958527 928.153503,284.207001 933.747192,280.941803 
	C938.239746,278.319336 939.119507,281.664764 940.690674,284.363922 
	C942.291992,287.114868 942.987793,289.284119 939.248413,291.181519 
	C917.893433,302.017426 896.585327,312.948151 875.363220,324.041687 
	C871.123962,326.257721 869.864441,323.935852 868.253113,320.865601 
	C866.618408,317.750671 866.294739,315.627014 870.111389,313.716034 
	C885.427795,306.047363 900.613586,298.117767 916.171753,290.108276 
z"/>
<path fill="#000000" opacity="1.000000" stroke="none" 
	d="
M814.086914,149.095322 
	C816.401428,146.444702 818.556152,144.119019 820.538269,141.654556 
	C822.707520,138.957397 824.495056,136.965698 828.096985,140.290756 
	C831.391235,143.331772 832.907043,145.354950 829.236572,149.471588 
	C813.497192,167.124512 798.030701,185.022278 782.589905,202.938568 
	C779.872559,206.091537 778.124634,204.385849 776.072144,202.469498 
	C773.835999,200.381577 770.646362,198.911194 774.133850,194.968964 
	C787.490967,179.870071 800.630432,164.578674 814.086914,149.095322 
z"/>
<path fill="#000000" opacity="1.000000" stroke="none" 
	d="
M114.023262,396.115601 
	C94.144463,390.448975 74.653954,384.904144 55.187901,379.274780 
	C53.248890,378.714020 50.226204,378.854858 50.177658,376.091125 
	C50.129402,373.344025 51.084702,370.525757 52.666218,368.132446 
	C53.452690,366.942230 54.818272,367.370209 55.895576,367.678101 
	C80.011887,374.570679 104.118416,381.497467 128.220154,388.440887 
	C128.668823,388.570129 129.037079,388.978455 129.330276,389.179413 
	C130.017792,390.062103 129.706589,390.869263 129.523911,391.670105 
	C127.686760,399.723846 127.687653,399.720245 119.731361,397.583221 
	C117.965164,397.108856 116.189651,396.669189 114.023262,396.115601 
z"/>
<path fill="#000000" opacity="1.000000" stroke="none" 
	d="
M923.223389,508.674927 
	C938.145325,509.343536 952.592346,510.024414 967.041260,510.662140 
	C969.044983,510.750580 971.267212,511.142426 970.566528,513.544495 
	C969.753906,516.330200 972.624939,520.679565 967.480713,521.782471 
	C966.413391,522.011353 965.283752,521.949280 963.557983,522.062256 
	C967.674194,526.781982 969.369507,531.902771 969.980530,537.439941 
	C970.255310,539.930298 970.302734,542.538330 966.826050,542.221313 
	C963.922180,541.956543 959.736145,544.034973 958.934326,538.725891 
	C956.860046,524.990173 953.150208,521.681274 939.247864,521.079834 
	C932.104492,520.770813 924.958618,520.511414 917.817932,520.150513 
	C912.742615,519.894104 912.434814,519.078796 912.622803,512.330994 
	C912.742859,508.021301 915.082092,507.931915 918.267761,508.449432 
	C919.734924,508.687775 921.253662,508.608673 923.223389,508.674927 
z"/>
<path fill="#000000" opacity="1.000000" stroke="none" 
	d="
M182.737411,763.719116 
	C187.341904,760.126587 191.840149,756.949890 195.947601,753.329834 
	C199.976257,749.779297 201.234451,753.328552 203.240570,755.589539 
	C205.383316,758.004517 206.412827,759.944580 203.079742,762.495117 
	C190.146530,772.391846 177.362839,782.484619 164.566315,792.558838 
	C162.459045,794.217834 160.545914,795.926758 158.520157,792.602356 
	C156.915039,789.968262 152.398819,787.746216 157.257431,784.128540 
	C157.648743,783.837219 157.936890,783.407410 158.640167,782.642639 
	C153.368179,780.838928 148.295319,778.982910 144.425186,775.060547 
	C142.520309,773.130127 140.207047,771.132019 143.702026,768.640503 
	C146.260300,766.816833 148.171967,762.900635 152.247543,767.229492 
	C159.495117,774.927307 167.218307,775.347473 175.776703,769.157288 
	C178.064987,767.502075 180.235458,765.684082 182.737411,763.719116 
z"/>
<path fill="#000000" opacity="1.000000" stroke="none" 
	d="
M200.522614,177.478729 
	C198.831284,175.283600 195.677902,173.912323 198.968307,170.751221 
	C203.811554,166.098343 204.107544,165.916092 209.422012,169.871979 
	C210.237122,164.023987 212.441483,158.949539 216.279968,154.661118 
	C217.996307,152.743622 219.951370,151.177246 221.912872,154.047668 
	C223.495575,156.363724 228.307678,157.639847 224.518570,162.051437 
	C216.286850,171.635468 216.492233,177.882141 224.983475,187.413895 
	C230.298782,193.380524 235.611069,199.351791 241.039719,205.214462 
	C243.055817,207.391785 244.082855,209.300430 240.947357,211.202179 
	C238.375168,212.762299 236.617752,217.609650 232.513550,212.989273 
	C222.011047,201.165833 211.356094,189.477798 200.522614,177.478729 
z"/>
<path fill="#000000" opacity="1.000000" stroke="none" 
	d="
M600.820312,899.431702 
	C603.749878,914.652649 606.544006,929.472534 609.383484,944.283691 
	C610.005066,947.525635 611.573853,950.533569 606.082520,951.607666 
	C601.178101,952.566895 598.709839,951.715088 598.512268,945.591919 
	C594.490540,951.027222 589.884277,954.343689 584.213928,955.993774 
	C581.966858,956.647705 579.203247,957.442017 578.902222,953.841980 
	C578.658447,950.926270 575.252502,947.188416 581.230530,945.463501 
	C591.859558,942.396667 595.505127,936.256165 593.919373,925.219788 
	C593.234436,920.452454 592.343262,915.714355 591.524536,910.966675 
	C590.709290,906.239563 589.867371,901.516968 589.057495,896.908325 
	C596.636597,892.435791 599.453369,893.002258 600.820312,899.431702 
z"/>
<path fill="#000000" opacity="1.000000" stroke="none" 
	d="
M830.278076,830.720825 
	C830.699219,835.345886 826.973877,836.847412 824.297607,838.512878 
	C821.742188,840.103088 820.371094,836.773926 818.913879,835.252808 
	C808.110229,823.974915 797.554688,812.457214 786.648804,801.280701 
	C783.598755,798.155151 784.581604,796.480164 787.217346,794.078308 
	C789.872925,791.658447 791.773682,789.601562 795.248657,793.396790 
	C806.691467,805.894043 818.442688,818.108826 830.278076,830.720825 
z"/>
<path fill="#000000" opacity="1.000000" stroke="none" 
	d="
M926.599060,595.322144 
	C923.247986,590.997131 922.867432,586.762146 925.840942,582.573669 
	C928.210388,579.236084 931.494690,577.399536 935.747925,578.178467 
	C940.261169,579.005005 943.213745,581.668396 944.441589,586.121094 
	C945.661499,590.544922 943.899414,594.018250 940.542419,596.651978 
	C936.436523,599.873230 932.177185,599.424683 926.599060,595.322144 
z"/>
<path fill="#000000" opacity="1.000000" stroke="none" 
	d="
M280.854980,134.798065 
	C286.437347,138.288559 288.389221,142.104416 287.024445,146.921356 
	C285.773956,151.335144 282.715912,154.067780 278.166107,154.646973 
	C273.233948,155.274841 269.875885,152.677277 267.761841,148.471268 
	C265.839844,144.647415 266.576202,140.889465 269.211731,137.729477 
	C272.157135,134.197968 276.054535,133.205017 280.854980,134.798065 
z"/>
<path fill="#000000" opacity="1.000000" stroke="none" 
	d="
M536.790955,930.639038 
	C537.166687,936.830383 534.584656,941.005371 529.713135,942.669983 
	C525.581299,944.081909 520.931030,942.414490 518.402527,938.614258 
	C515.762146,934.645691 516.222168,929.325806 519.394958,925.707153 
	C524.324463,920.084961 534.968323,922.000061 536.790955,930.639038 
z"/>
<path fill="#000000" opacity="1.000000" stroke="none" 
	d="
M844.117188,842.772339 
	C846.908447,845.630737 847.225464,848.716248 845.567688,851.705078 
	C843.706116,855.061584 840.631897,856.820496 836.786255,855.360657 
	C833.133850,853.974243 831.206421,850.999207 832.135559,847.067688 
	C833.084778,843.050842 836.011475,840.950317 840.175598,841.107117 
	C841.406128,841.153442 842.605286,842.034180 844.117188,842.772339 
z"/>
</svg>