<?xml version="1.0" standalone="no"?>
<!DOCTYPE svg PUBLIC "-//W3C//DTD SVG 20010904//EN"
 "http://www.w3.org/TR/2001/REC-SVG-20010904/DTD/svg10.dtd">
<svg version="1.0" xmlns="http://www.w3.org/2000/svg"
 width="673.000000pt" height="943.000000pt" viewBox="0 0 673.000000 943.000000"
 preserveAspectRatio="xMidYMid meet">

<g transform="translate(0.000000,943.000000) scale(0.100000,-0.100000)"
fill="#000000" stroke="none">
<path d="M4639 9407 c-36 -20 -131 -90 -146 -109 -12 -13 -64 -199 -237 -843
-209 -781 -518 -2020 -720 -2896 -90 -387 -106 -469 -106 -540 0 -91 20 -223
46 -304 61 -189 205 -316 389 -345 38 -6 71 -13 74 -15 2 -3 -23 -67 -57 -142
-162 -369 -242 -587 -432 -1183 -106 -333 -194 -606 -195 -608 -1 -1 -69 -14
-151 -28 -290 -48 -496 -104 -589 -158 -93 -55 -134 -135 -115 -222 15 -68 59
-151 97 -185 85 -74 157 -88 344 -67 l115 13 -93 -197 c-86 -185 -105 -215
-268 -445 l-175 -247 0 -80 c0 -106 13 -149 61 -201 64 -69 122 -89 259 -90
109 0 119 2 180 31 205 100 423 396 697 949 49 99 109 223 132 275 l43 96 625
87 c344 48 626 87 628 85 11 -15 425 -1270 425 -1289 0 -47 40 -261 71 -377
50 -191 114 -298 202 -341 36 -17 62 -21 153 -21 102 0 112 2 159 29 73 42
134 107 169 181 52 111 49 257 -11 545 -61 294 -210 786 -391 1291 l-40 112
106 22 c352 71 515 138 592 243 102 139 37 321 -139 388 l-56 22 -340 -47
c-187 -26 -347 -47 -355 -46 -11 0 -56 125 -163 452 -157 477 -286 850 -343
983 -18 44 -45 127 -59 185 -28 111 -87 279 -112 318 -8 13 -13 25 -11 27 16
16 965 364 1103 405 341 99 579 192 654 256 52 44 61 71 61 193 l0 111 -37 41
c-58 65 -73 68 -268 58 -463 -23 -934 -124 -1520 -326 -169 -58 -540 -201
-674 -260 -9 -4 -12 -1 -8 13 4 10 62 255 131 544 305 1282 553 2425 686 3159
28 157 30 181 20 239 -6 36 -20 82 -30 102 -28 56 -109 124 -172 144 -76 25
-176 31 -209 13z m16 -6215 c103 -304 185 -555 181 -559 -7 -7 -757 -105 -763
-99 -6 6 76 303 153 552 85 278 228 675 238 663 2 -2 87 -253 191 -557z"/>
<path d="M422 9255 c-73 -20 -106 -39 -154 -87 -52 -52 -80 -117 -85 -198 -4
-55 3 -91 41 -230 98 -359 166 -526 233 -577 25 -19 51 -28 96 -32 l61 -6 49
-90 c130 -239 309 -529 404 -654 19 -25 32 -50 29 -57 -3 -7 -52 -77 -109
-156 -532 -736 -858 -1335 -947 -1744 -42 -196 -39 -302 12 -360 45 -51 81
-66 157 -66 106 0 318 66 367 116 12 12 38 72 59 136 37 114 93 225 293 575
171 299 385 621 561 845 11 14 22 23 24 20 2 -3 28 -41 57 -85 124 -186 428
-575 798 -1023 l250 -304 17 -75 17 -75 -26 -27 c-31 -33 -72 -122 -81 -179
-5 -28 -52 -119 -142 -275 -311 -533 -568 -1022 -738 -1402 -37 -82 -69 -154
-72 -158 -3 -4 -51 99 -108 230 -56 131 -140 315 -187 408 -358 720 -407 805
-543 940 -137 137 -249 188 -411 187 -161 0 -260 -48 -305 -147 -23 -50 -25
-149 -4 -230 26 -104 110 -260 173 -323 85 -86 122 -135 204 -272 163 -272
552 -1014 633 -1207 52 -125 107 -218 166 -279 l40 -40 -76 -220 c-106 -307
-224 -685 -307 -984 -85 -311 -198 -778 -198 -823 0 -41 42 -109 99 -160 68
-61 109 -69 241 -47 85 14 113 28 134 68 7 15 201 488 429 1052 407 1006 420
1036 695 1610 435 910 912 1946 912 1978 0 5 22 39 48 74 27 36 60 93 75 126
36 79 68 205 68 262 0 55 -27 208 -39 224 -5 6 -283 385 -617 841 -335 457
-633 862 -662 902 l-53 71 552 699 c304 384 562 713 575 732 19 29 23 47 23
116 l0 83 -48 63 c-26 35 -63 80 -83 101 -34 36 -39 38 -96 38 -73 0 -123 -16
-200 -66 -208 -132 -562 -508 -1017 -1077 -43 -55 -81 -95 -86 -90 -22 25
-464 665 -562 814 -183 277 -314 430 -421 493 -58 34 -139 42 -215 21z"/>
</g>
</svg>
